<?xml version="1.0" encoding="iso-8859-1"?>
<!-- Generator: Adobe Illustrator 16.0.0, SVG Export Plug-In . SVG Version: 6.00 Build 0)  -->
<!DOCTYPE svg PUBLIC "-//W3C//DTD SVG 1.1//EN" "http://www.w3.org/Graphics/SVG/1.1/DTD/svg11.dtd">
<svg version="1.1" id="Capa_1" xmlns="http://www.w3.org/2000/svg" xmlns:xlink="http://www.w3.org/1999/xlink" x="0px" y="0px"
	 width="500px" height="500px" viewBox="0 0 500 500" style="enable-background:new 0 0 500 500;" xml:space="preserve">
<g>
	<path d="M184.977,34.016c-41.686-41.686-109.273-41.686-150.96,0c-41.687,41.688-41.687,109.275,0,150.962l281.005,281.004
		c41.687,41.688,109.274,41.688,150.96,0c41.688-41.686,41.688-109.273,0-150.96L184.977,34.016z M173.029,93.455
		c6.906-6.906,18.102-6.908,25.01-0.001c6.905,6.906,6.905,18.103-0.001,25.009c-6.906,6.905-18.102,6.905-25.008,0
		C166.123,111.557,166.123,100.36,173.029,93.455z M53.667,78.678c-6.907-6.908-6.907-18.104,0-25.011
		c6.906-6.905,18.103-6.905,25.009,0.001c6.905,6.905,6.905,18.102,0,25.008C71.77,85.583,60.573,85.583,53.667,78.678z
		 M73.561,138.358c-6.907-6.907-6.907-18.104,0-25.01c6.906-6.907,18.103-6.907,25.01,0c6.905,6.906,6.905,18.103-0.001,25.01
		C91.663,145.263,80.467,145.263,73.561,138.358z M118.463,198.038c-6.906,6.908-18.104,6.908-25.009,0.001
		c-6.907-6.906-6.905-18.103,0.001-25.01c6.906-6.905,18.102-6.906,25.008,0C125.37,179.935,125.37,191.133,118.463,198.038z
		 M113.348,98.571c-6.907-6.907-6.907-18.104,0-25.011c6.905-6.905,18.103-6.905,25.01,0.001c6.906,6.905,6.906,18.103,0,25.008
		C131.451,105.476,120.253,105.477,113.348,98.571z M133.242,158.252c-6.908-6.908-6.906-18.103,0-25.01
		c6.905-6.906,18.102-6.906,25.008,0c6.905,6.907,6.905,18.102,0,25.008C151.344,165.157,140.147,165.157,133.242,158.252z
		 M212.184,322.345l-34.529-34.528c-30.42-30.419-30.42-79.741,0-110.163c30.419-30.419,79.743-30.419,110.162,0l34.528,34.53
		c30.422,30.42,30.421,79.742,0,110.161C291.925,352.766,242.604,352.767,212.184,322.345z M326.972,406.546
		c-6.907,6.906-18.104,6.906-25.01,0.002c-6.906-6.907-6.906-18.104,0.002-25.01c6.905-6.907,18.102-6.907,25.008,0
		C333.877,388.443,333.877,399.64,326.972,406.546z M341.751,366.759c-6.907-6.906-6.907-18.103,0-25.008
		c6.906-6.908,18.103-6.908,25.008-0.002c6.906,6.905,6.906,18.104,0,25.01C359.853,373.664,348.656,373.664,341.751,366.759z
		 M386.653,426.44c-6.906,6.906-18.104,6.906-25.01,0s-6.906-18.104-0.001-25.01c6.906-6.906,18.103-6.906,25.011,0
		C393.56,408.337,393.56,419.534,386.653,426.44z M381.538,326.971c-6.905-6.906-6.907-18.102,0-25.009
		c6.906-6.906,18.103-6.906,25.009,0c6.905,6.905,6.905,18.103,0,25.009C399.64,333.877,388.444,333.876,381.538,326.971z
		 M401.431,386.653c-6.906-6.906-6.906-18.104,0-25.011s18.104-6.906,25.01,0c6.907,6.906,6.907,18.103,0,25.011
		C419.534,393.56,408.337,393.56,401.431,386.653z M446.333,446.333c-6.906,6.905-18.103,6.905-25.008,0
		c-6.907-6.906-6.907-18.103,0-25.008c6.906-6.907,18.103-6.907,25.009-0.002C453.239,428.23,453.239,439.427,446.333,446.333z"/>
	<path d="M465.983,184.978c41.687-41.687,41.687-109.274,0-150.961c-41.686-41.687-109.273-41.687-150.961,0l-46.834,46.834
		l150.961,150.961L465.983,184.978z"/>
	<path d="M34.018,315.022c-41.688,41.687-41.688,109.274,0,150.96c41.688,41.688,109.275,41.688,150.959,0l46.835-46.834
		L80.851,268.188L34.018,315.022z"/>
</g>
</svg>
