<?xml version="1.0" encoding="iso-8859-1"?>
<!-- Generator: Adobe Illustrator 16.0.0, SVG Export Plug-In . SVG Version: 6.00 Build 0)  -->
<!DOCTYPE svg PUBLIC "-//W3C//DTD SVG 1.1//EN" "http://www.w3.org/Graphics/SVG/1.1/DTD/svg11.dtd">
<svg version="1.1" id="Layer_1" xmlns="http://www.w3.org/2000/svg" xmlns:xlink="http://www.w3.org/1999/xlink" x="0px" y="0px"
	 width="512px" height="512px" viewBox="0 0 512 512" style="enable-background:new 0 0 512 512;" xml:space="preserve">
<g>
	<path d="M156.105,143.573h106.666c5.521,0,10-4.478,10-10c0-5.523-4.479-10-10-10H156.105c-5.523,0-10,4.477-10,10
		C146.105,139.096,150.582,143.573,156.105,143.573z"/>
	<path d="M156.105,192.906h145.334c5.521,0,10-4.477,10-10c0-5.522-4.479-10-10-10H156.105c-5.523,0-10,4.478-10,10
		C146.105,188.43,150.582,192.906,156.105,192.906z"/>
	<path d="M115.529,72.76h226.486v156.773c3.947,1.141,7.336,2.849,10.107,4.403c4.689-2.63,11.135-5.714,19.092-5.714
		c0.27,0,0.533,0.023,0.801,0.03V72.76c0-16.568-13.432-30-30-30H115.529c-16.568,0-30,13.432-30,30v334.293
		c0,16.568,13.432,30,30,30h181.666v-30H115.529V72.76z"/>
	<path d="M418.186,303.748c-2.234-1.988-4.768-4.242-5.324-5.954c-0.607-1.872,0.1-5.156,0.781-8.332
		c1.07-4.979,2.283-10.621-0.797-14.853c-3.107-4.271-8.883-4.856-13.98-5.373c-3.055-0.311-6.518-0.661-8.066-1.789
		c-1.512-1.099-2.895-4.253-4.115-7.036c-2.074-4.725-4.422-10.079-9.51-11.73c-0.936-0.304-1.932-0.458-2.959-0.458
		c-3.895,0-7.633,2.17-11.246,4.27c-2.852,1.656-5.801,3.368-7.846,3.368c-2.047,0-4.994-1.712-7.848-3.368
		c-3.613-2.1-7.35-4.27-11.246-4.27c-1.027,0-2.021,0.154-2.959,0.458c-5.086,1.651-7.436,7.006-9.51,11.73
		c-1.221,2.783-2.604,5.938-4.115,7.036c-1.549,1.128-5.012,1.479-8.066,1.789c-5.096,0.517-10.873,1.103-13.98,5.373
		c-3.08,4.231-1.867,9.874-0.797,14.853c0.682,3.177,1.389,6.461,0.779,8.333c-0.555,1.711-3.088,3.965-5.322,5.953
		c-3.885,3.456-8.287,7.373-8.287,12.808s4.402,9.352,8.287,12.808c2.234,1.988,4.768,4.242,5.324,5.954
		c0.607,1.871-0.098,5.156-0.781,8.332c-1.07,4.979-2.283,10.621,0.797,14.853c3.107,4.271,8.885,4.856,13.98,5.374
		c3.055,0.31,6.518,0.66,8.066,1.788c1.512,1.1,2.895,4.254,4.117,7.037c2.072,4.724,4.422,10.078,9.508,11.729
		c0.938,0.305,1.934,0.458,2.961,0.458c3.893,0,7.631-2.17,11.244-4.269c2.852-1.656,5.801-3.369,7.848-3.369
		c2.045,0,4.994,1.712,7.846,3.369c3.613,2.099,7.352,4.269,11.246,4.269c1.027,0,2.023-0.154,2.961-0.458
		c5.084-1.651,7.434-7.006,9.506-11.73c1.223-2.782,2.605-5.937,4.117-7.036c1.549-1.128,5.012-1.479,8.066-1.789
		c5.098-0.517,10.873-1.103,13.98-5.373c3.08-4.231,1.867-9.874,0.797-14.853c-0.682-3.176-1.389-6.461-0.779-8.332
		c0.555-1.712,3.088-3.966,5.322-5.954c3.885-3.456,8.287-7.373,8.287-12.808S422.07,307.204,418.186,303.748z M355.123,342.525
		c-14.344,0-25.971-11.627-25.971-25.97s11.627-25.97,25.971-25.97c14.342,0,25.969,11.627,25.969,25.97
		S369.465,342.525,355.123,342.525z"/>
	<path d="M379.525,391.669c-1.697,0.552-3.484,0.831-5.311,0.831c-5.945,0-11.004-2.938-15.068-5.299
		c-1.152-0.67-2.945-1.71-4.023-2.179c-1.08,0.469-2.871,1.51-4.025,2.179c-4.064,2.36-9.123,5.299-15.066,5.299l0,0
		c-1.828,0-3.615-0.279-5.313-0.83c-5.02-1.63-8.229-5.049-10.523-8.728v82.188c0,1.631,0.965,3.106,2.457,3.763
		c1.492,0.655,3.232,0.365,4.434-0.738l28.037-25.781l28.035,25.781c0.773,0.712,1.771,1.085,2.783,1.085
		c0.557,0,1.121-0.114,1.65-0.347c1.494-0.656,2.457-2.132,2.457-3.763v-82.228C387.75,386.568,384.502,390.054,379.525,391.669z"/>
</g>
</svg>
