<?xml version="1.0" encoding="utf-8"?>
<!-- Generator: Adobe Illustrator 16.0.0, SVG Export Plug-In . SVG Version: 6.00 Build 0)  -->
<!DOCTYPE svg PUBLIC "-//W3C//DTD SVG 1.1//EN" "http://www.w3.org/Graphics/SVG/1.1/DTD/svg11.dtd">
<svg version="1.1" id="Capa_1" xmlns="http://www.w3.org/2000/svg" xmlns:xlink="http://www.w3.org/1999/xlink" x="0px" y="0px"
	 width="64px" height="64px" viewBox="0 0 64 64" enable-background="new 0 0 64 64" xml:space="preserve">
<g>
	<path d="M58.124,2.123c-1.011-1.046-2.404-1.637-3.859-1.637H17.709c3.061,1.561,5.29,4.817,5.29,8.325
		c0,2.858-1.215,5.404-3.208,7.152h37.753c1.991-1.749,3.252-4.387,3.252-7.246C60.796,6.152,59.776,3.833,58.124,2.123z"/>
	<path d="M32.973,62.154c-0.023,0.137,0.039,0.274,0.156,0.349c0.118,0.074,0.27,0.069,0.383-0.009l1.779-1.241
		c0.748-0.523,1.777-0.355,2.32,0.38l1.291,1.74c0.083,0.113,0.225,0.163,0.359,0.131c0.136-0.033,0.237-0.145,0.26-0.281
		l1.543-9.45c-2.428-0.098-4.627-1.07-6.298-2.616L32.973,62.154z"/>
	<path d="M41.849,53.775l1.543,9.449c0.022,0.135,0.124,0.246,0.26,0.279c0.135,0.032,0.276-0.018,0.359-0.131l1.687-2.274
		c0.323-0.437,0.935-0.537,1.38-0.228l2.323,1.623c0.113,0.078,0.265,0.083,0.382,0.009c0.118-0.074,0.18-0.212,0.157-0.349
		L48.145,51.16C46.476,52.706,44.274,53.679,41.849,53.775z"/>
	<path d="M47.556,49.505c1.348-1.472,2.177-3.426,2.177-5.572c0-4.562-3.714-8.277-8.276-8.277c-4.564,0-8.276,3.716-8.276,8.277
		c0,2.138,0.82,4.081,2.157,5.551c0.161,0.179,0.329,0.349,0.506,0.515c1.402,1.298,3.247,2.113,5.284,2.193
		c0.111,0.005,0.218,0.018,0.329,0.018s0.22-0.013,0.329-0.018c2.035-0.08,3.882-0.896,5.284-2.193
		C47.237,49.841,47.401,49.678,47.556,49.505z"/>
	<path d="M18.716,15.078c1.827-1.602,2.835-3.797,2.835-6.179c0-3.817-2.736-6.228-4.719-7.473
		c-1.503-0.945-3.378-1.112-5.024-0.445C8.813,2.193,6.702,5.128,6.702,8.558v45.363c0,0.903,0.73,1.634,1.635,1.634h24.016
		l0.989-6.059c-1.094-1.585-1.748-3.496-1.748-5.563c0-5.437,4.422-9.862,9.862-9.862c5.437,0,9.861,4.426,9.861,9.862
		c0,2.067-0.651,3.98-1.749,5.565l0.99,6.057h3.341c0.905-0.002,1.641-0.735,1.641-1.638V17.225H16.267
		C16.267,17.225,18.104,15.615,18.716,15.078z M49.935,33.62H13.648c-0.451,0-0.816-0.367-0.816-0.818
		c0-0.452,0.365-0.817,0.816-0.817h36.287c0.45,0,0.816,0.365,0.816,0.817C50.751,33.253,50.385,33.62,49.935,33.62z M12.833,27.968
		c0-0.452,0.365-0.818,0.817-0.818h25.607c0.453,0,0.82,0.366,0.82,0.818c0,0.451-0.367,0.817-0.82,0.817h-25.61
		C13.197,28.785,12.833,28.419,12.833,27.968z M49.935,22.313c0.45,0,0.816,0.367,0.816,0.818c0,0.452-0.366,0.817-0.816,0.817
		H13.648c-0.451,0-0.816-0.365-0.816-0.817c0-0.451,0.365-0.818,0.816-0.818H49.935z"/>
</g>
</svg>
