<?xml version="1.0" encoding="utf-8"?>
<!-- Generator: Adobe Illustrator 16.0.4, SVG Export Plug-In . SVG Version: 6.00 Build 0)  -->
<!DOCTYPE svg PUBLIC "-//W3C//DTD SVG 1.1//EN" "http://www.w3.org/Graphics/SVG/1.1/DTD/svg11.dtd">
<svg version="1.1" id="Layer_1" xmlns="http://www.w3.org/2000/svg" xmlns:xlink="http://www.w3.org/1999/xlink" x="0px" y="0px"
	 width="50px" height="50px" viewBox="0 0 50 50" enable-background="new 0 0 50 50" xml:space="preserve">
<path d="M35.149,31.214c-0.684,0.445-1.394,0.828-2.12,1.154c-1.382,4.832-5.845,7.639-5.845,7.639
	c1.861-2.223,1.358-4.48,0.271-6.279c-2.848,0.152-5.549-0.543-7.551-2.043c0.07-0.047,0.143-0.088,0.213-0.137
	c0.98,0.139,1.993,0.215,3.031,0.215c8.514,0,15.416-4.938,15.416-11.029c0-1.832-0.635-3.555-1.738-5.073
	c0.793,0.465,1.508,1.03,2.105,1.711C42.45,21.382,40.756,27.579,35.149,31.214z M9.44,32.175c0,0,5.816,0.074,10.537-3.234
	c0.852,0.121,1.729,0.188,2.631,0.188c7.387,0,13.375-4.283,13.375-9.567c0-5.285-5.988-9.568-13.375-9.568
	S9.233,14.276,9.233,19.562c0,3.034,1.98,5.733,5.062,7.487C13.882,29.153,12.642,31.321,9.44,32.175z"/>
</svg>
