<?xml version="1.0" encoding="utf-8"?>
<!-- Generator: Adobe Illustrator 17.0.0, SVG Export Plug-In . SVG Version: 6.00 Build 0)  -->
<!DOCTYPE svg PUBLIC "-//W3C//DTD SVG 1.1//EN" "http://www.w3.org/Graphics/SVG/1.1/DTD/svg11.dtd">
<svg version="1.1" id="Layer_1" xmlns="http://www.w3.org/2000/svg" xmlns:xlink="http://www.w3.org/1999/xlink" x="0px" y="0px"
	 width="32px" height="32px" viewBox="0 0 32 32" enable-background="new 0 0 32 32" xml:space="preserve">
<g>
	<path d="M23.394,6.05V5.192c0-0.722-0.585-1.306-1.307-1.306H20.16c0.183-0.373,0.287-0.776,0.287-1.208
		C20.447,1.204,19.248,0,17.774,0c-1.473,0-2.672,1.206-2.672,2.681c0,0.433,0.104,0.833,0.287,1.206h-2.582
		c-0.722,0-1.306,0.584-1.306,1.306V6.05H8.211c-1.169,0-2.118,0.948-2.118,2.117v21.715c0,1.17,0.948,2.118,2.118,2.118h18.471
		c1.17,0,2.118-0.948,2.118-2.118V8.167c0-1.169-0.949-2.117-2.118-2.117H23.394z M16.182,2.679c0-0.879,0.715-1.599,1.592-1.599
		c0.878,0,1.592,0.721,1.592,1.601c0,0.48-0.212,0.915-0.546,1.206h-2.09C16.394,3.596,16.182,3.159,16.182,2.679z M26.638,28.738
		c0,0.607-0.492,1.1-1.099,1.1H9.355c-0.607,0-1.099-0.492-1.099-1.1V9.311c0-0.607,0.492-1.099,1.099-1.099H11.5
		c0,0.597,0.484,1.081,1.081,1.081h9.731c0.597,0,1.082-0.484,1.082-1.081h2.145c0.607,0,1.099,0.491,1.099,1.099V28.738z"/>
	<path d="M16.576,19.572l-1.318-1.32c-0.148-0.149-0.35-0.232-0.56-0.232c-0.21,0-0.411,0.083-0.56,0.232l-0.409,0.409
		c-0.309,0.309-0.309,0.81,0,1.119l2.315,2.317c0.151,0.151,0.358,0.235,0.571,0.231c0.214-0.003,0.418-0.092,0.565-0.248
		l4.021-4.263c0.3-0.318,0.286-0.818-0.032-1.119l-0.42-0.396c-0.153-0.145-0.356-0.222-0.566-0.216
		c-0.21,0.006-0.409,0.096-0.553,0.248L16.576,19.572z"/>
	<path d="M17.447,10.903c-4.356,0-7.899,3.548-7.899,7.909c0,4.36,3.543,7.909,7.899,7.909c4.355,0,7.9-3.549,7.9-7.909
		C25.347,14.451,21.803,10.903,17.447,10.903z M17.447,24.56c-3.165,0-5.739-2.578-5.739-5.748s2.574-5.748,5.739-5.748
		c3.164,0,5.739,2.578,5.739,5.748S20.611,24.56,17.447,24.56z"/>
</g>
</svg>
