<?xml version="1.0" encoding="iso-8859-1"?>
<!-- Generator: Adobe Illustrator 17.1.0, SVG Export Plug-In . SVG Version: 6.00 Build 0)  -->
<!DOCTYPE svg PUBLIC "-//W3C//DTD SVG 1.1//EN" "http://www.w3.org/Graphics/SVG/1.1/DTD/svg11.dtd">
<svg version="1.1" id="Capa_1" xmlns="http://www.w3.org/2000/svg" xmlns:xlink="http://www.w3.org/1999/xlink" x="0px" y="0px"
	 viewBox="0 0 64 64" style="enable-background:new 0 0 64 64;" xml:space="preserve">
<g>
	<path d="M31.813,20.538c2.457,0,4.449-1.992,4.449-4.448c0-2.441-1.992-4.433-4.449-4.433c-2.44,0-4.425,1.992-4.425,4.433
		C27.389,18.546,29.373,20.538,31.813,20.538z"/>
	<path d="M58.956,3.86h-0.982c-1.448,0-2.622,1.174-2.622,2.622v2.267H8.648V6.482c0-1.448-1.174-2.622-2.623-2.622H5.044
		c-1.448,0-2.623,1.174-2.623,2.622v6.905c0,1.448,1.174,2.621,2.623,2.621h0.982c1.448,0,2.623-1.173,2.623-2.621v-2.267h5.247
		c-0.372,0.816-0.243,1.81,0.411,2.498l11.539,11.554v34.326c0,1.391,1.117,2.501,2.486,2.501c1.394,0,2.502-1.11,2.502-2.501
		V42.696h2.021l0.016,16.803c0,1.391,1.123,2.501,2.502,2.501c1.376,0,2.485-1.11,2.485-2.501l-0.015-34.326l11.539-11.554
		c0.654-0.688,0.782-1.682,0.411-2.498h5.559v2.267c0,1.448,1.174,2.621,2.622,2.621h0.982c1.448,0,2.622-1.173,2.622-2.621V6.482
		C61.579,5.034,60.404,3.86,58.956,3.86z M35.125,21.526h-6.478L18.235,11.121h27.23L35.125,21.526z"/>
</g>
</svg>
