<?xml version="1.0" encoding="utf-8"?>
<!-- Generator: Adobe Illustrator 17.0.0, SVG Export Plug-In . SVG Version: 6.00 Build 0)  -->
<!DOCTYPE svg PUBLIC "-//W3C//DTD SVG 1.1//EN" "http://www.w3.org/Graphics/SVG/1.1/DTD/svg11.dtd">
<svg version="1.1" id="Capa_1" xmlns="http://www.w3.org/2000/svg" xmlns:xlink="http://www.w3.org/1999/xlink" x="0px" y="0px"
	 width="64px" height="64px" viewBox="0 0 64 64" enable-background="new 0 0 64 64" xml:space="preserve">
<path d="M37.814,32.719c-1.433,1.681-2.723,2.911-2.711,2.9c0.012-0.01-1.119,1.367-2.691,2.919
	c-1.264,1.247-2.669,2.478-4.226,3.647c-1.766,1.327-4.527,1.499-6.026,0.584c-1.5-0.914-4.384-2.768-6.542-2.295
	c-1.813,0.397-4.22,1.727-7.116,5.145c-6.828,8.062-0.711,10.579,3.528,13.83c4.243,3.249,18.24-4.799,31.059-17.911
	c12.82-13.111,17.648-26.675,14.099-30.668c-3.55-3.993-6.509-9.91-14.052-2.515c-3.198,3.136-4.349,5.634-4.613,7.471
	c-0.315,2.187,1.743,4.929,2.764,6.358c1.021,1.43,1.05,4.196-0.145,6.054C40.09,29.877,38.966,31.368,37.814,32.719z"/>
</svg>
