<?xml version="1.0" encoding="utf-8"?>
<!-- Generator: Adobe Illustrator 16.0.4, SVG Export Plug-In . SVG Version: 6.00 Build 0)  -->
<!DOCTYPE svg PUBLIC "-//W3C//DTD SVG 1.1//EN" "http://www.w3.org/Graphics/SVG/1.1/DTD/svg11.dtd">
<svg version="1.1" id="Capa_1" xmlns="http://www.w3.org/2000/svg" xmlns:xlink="http://www.w3.org/1999/xlink" x="0px" y="0px"
	 width="64px" height="64px" viewBox="0 0 64 64" enable-background="new 0 0 64 64" xml:space="preserve">
<path d="M52.533,10.752h-39.5c-1.657,0-3,1.343-3,3v36.609c0,1.658,1.343,3,3,3h39.5c1.656,0,3-1.342,3-3V13.752
	C55.533,12.095,54.189,10.752,52.533,10.752z M47.669,35.562c0,0.554-0.446,1-1,1H38.29c-0.554,0-1,0.447-1,1v8.379
	c0,0.554-0.447,1-1,1h-7.014c-0.553,0-1-0.446-1-1v-8.379c0-0.553-0.447-1-1-1h-8.379c-0.553,0-1-0.446-1-1V28.55
	c0-0.553,0.447-1,1-1h8.379c0.553,0,1-0.447,1-1v-8.378c0-0.553,0.447-1,1-1h7.014c0.553,0,1,0.447,1,1v8.378c0,0.553,0.446,1,1,1
	h8.379c0.554,0,1,0.447,1,1V35.562z"/>
</svg>
