<?xml version="1.0" encoding="iso-8859-1"?>
<!-- Generator: Adobe Illustrator 16.0.0, SVG Export Plug-In . SVG Version: 6.00 Build 0)  -->
<!DOCTYPE svg PUBLIC "-//W3C//DTD SVG 1.1//EN" "http://www.w3.org/Graphics/SVG/1.1/DTD/svg11.dtd">
<svg version="1.1" id="Layer_1" xmlns="http://www.w3.org/2000/svg" xmlns:xlink="http://www.w3.org/1999/xlink" x="0px" y="0px"
	 width="512px" height="512px" viewBox="0 0 512 512" style="enable-background:new 0 0 512 512;" xml:space="preserve">
<g>
	<circle cx="256" cy="256" r="50.998"/>
	<path d="M474.19,226h-39.666C421.823,150.172,361.828,90.177,286,77.476V37.81c0-2.761-2.239-5-5-5h-50c-2.761,0-5,2.239-5,5
		v39.666C150.172,90.177,90.177,150.172,77.476,226H37.81c-2.761,0-5,2.239-5,5v50c0,2.761,2.239,5,5,5h39.666
		C90.177,361.828,150.172,421.823,226,434.524v39.666c0,2.761,2.239,5,5,5h50c2.761,0,5-2.239,5-5v-39.666
		C361.828,421.823,421.823,361.828,434.524,286h39.666c2.761,0,5-2.239,5-5v-50C479.19,228.239,476.952,226,474.19,226z
		 M256,387.024c-72.247,0-131.024-58.777-131.024-131.024S183.753,124.976,256,124.976S387.024,183.753,387.024,256
		S328.247,387.024,256,387.024z"/>
</g>
</svg>
