<svg xmlns="http://www.w3.org/2000/svg" width="1000" height="1000" viewBox="0 0 1000 1000"><path d="M94 641.4l79.8 138.7c8.3 14.4 26.6 19.3 41 11L390 690.3v202.2c0 16.6 13.4 30 30 30h160c16.6 0 30-13.4 30-30V690.3l175.2 100.9c14.4 8.3 32.7 3.3 41-11L906 641.4c8.3-14.4 3.3-32.7-11-41L720.5 500 895 399.5c14.4-8.3 19.3-26.6 11-41l-79.8-138.7c-8.3-14.4-26.6-19.3-41-11L610 309.7V107.6c0-16.6-13.4-30-30-30H420c-16.6 0-30 13.4-30 30v202.2L214.8 208.9c-14.4-8.3-32.7-3.3-41 11L94 358.6c-8.3 14.4-3.3 32.7 11 41L279.5 500 105 600.5c-14.3 8.2-19.3 26.6-11 40.9z"/></svg>