<svg xmlns="http://www.w3.org/2000/svg" width="25.94" height="25.875" viewBox="0 0 25.94 25.875"><path d="M10.632 11.016L4.105 10.4s-.87.022-.385-.462c.488-.486 1.664-1.664 1.664-1.664s-.287-.286-.724-.727L.19 3.077s-.323-.19.063-.57C.638 2.116 2.32.433 2.595.16c.27-.275.48-.053.48-.053.903.9 3.27 3.263 4.48 4.478l.653.652s.943-.945 1.54-1.54c.59-.59.587.302.587.302s.826 5.848.826 6.547c.002.51-.528.466-.528.466zM15.37 14.87l6.526.618s.87-.025.387.46c-.486.485-1.666 1.67-1.666 1.67s.285.28.727.722c1.258 1.256 3.54 3.54 4.473 4.475 0 0 .318.182-.064.564-.385.386-2.07 2.073-2.348 2.347-.27.27-.475.055-.475.055-.904-.906-3.27-3.268-4.484-4.482l-.646-.648-1.543 1.535c-.592.594-.592-.3-.592-.3s-.82-5.85-.82-6.546c-.002-.51.526-.47.526-.47zM10.994 15.305l-.615 6.53s.024.872-.462.384c-.488-.49-1.668-1.667-1.668-1.667s-.287.287-.72.727c-1.26 1.258-3.548 3.54-4.478 4.475 0 0-.186.314-.57-.068S.416 23.615.138 23.347c-.275-.273-.055-.482-.055-.482.904-.9 3.266-3.268 4.482-4.482l.652-.65s-.943-.945-1.54-1.535c-.595-.596.298-.592.298-.592s5.852-.822 6.553-.822c.51-.003.466.52.466.52zM14.85 10.568l.614-6.53s-.023-.868.46-.384c.49.488 1.667 1.668 1.667 1.668l.73-.727c1.256-1.258 3.54-3.54 4.47-4.47 0 0 .187-.32.57.065.386.38 2.07 2.066 2.343 2.338.277.275.057.482.057.482-.902.904-3.268 3.268-4.48 4.482l-.656.648s.947.943 1.54 1.537c.593.598-.296.592-.296.592s-5.852.823-6.553.823c-.507.003-.466-.525-.466-.525z"/></svg>