<svg xmlns="http://www.w3.org/2000/svg" width="32" height="32" viewBox="0 0 32 32"><path d="M30.773 7.228h-7.47L18.856 2.83v-.037c0-1.367-1.107-2.473-2.477-2.473-1.366 0-2.475 1.11-2.475 2.476 0 .06.003.113.008.172l-4.547 4.26h-8.14c-.655 0-1.152.55-1.152 1.204v20.99c0 .655.498 1.188 1.153 1.188h29.55c.655 0 1.15-.53 1.15-1.187V8.433c.003-.655-.493-1.205-1.15-1.205zM15.233 4.98c.344.18.733.287 1.148.287.45 0 .868-.127 1.23-.334l2.325 2.295H12.83l2.404-2.247zM29.59 28.27H2.408V9.64h27.18v18.63zM3.793 12.636c0 .654.53 1.168 1.185 1.168h22.04c.656 0 1.188-.514 1.188-1.168 0-.655-.53-1.17-1.188-1.17H4.978c-.656 0-1.185.515-1.185 1.17zM27.02 15.704H4.978c-.656 0-1.185.514-1.185 1.17 0 .653.53 1.167 1.185 1.167h22.04c.656 0 1.188-.513 1.188-1.167 0-.655-.53-1.17-1.186-1.17zM26.244 20.234H16.5c-.655 0-1.187.515-1.187 1.168 0 .654.53 1.17 1.186 1.17h9.744c.656 0 1.188-.514 1.188-1.17 0-.653-.532-1.168-1.188-1.168zM26.244 24.618H16.5c-.655 0-1.187.514-1.187 1.17 0 .653.53 1.17 1.186 1.17h9.744c.656 0 1.188-.517 1.188-1.17 0-.656-.532-1.17-1.188-1.17zM11.852 22.072l-1.508-.312c-.283-.058-.632-.31-.773-.562l-.762-1.34c-.142-.25-.375-.25-.518 0l-.762 1.34c-.143.252-.49.504-.772.562l-1.508.312c-.28.058-.355.28-.16.494l1.036 1.137c.194.213.328.622.297.908l-.17 1.53c-.032.286.157.424.42.305l1.402-.633c.262-.12.69-.12.955 0l1.402.633c.26.12.45-.02.417-.305l-.17-1.53c-.03-.285.102-.694.298-.907l1.035-1.137c.195-.212.123-.436-.158-.494z"/></svg>