<svg xmlns="http://www.w3.org/2000/svg" width="32" height="32" viewBox="0 0 32 32"><path d="M7.98 21.578l-2.724 7.717 4.937-1.647L13 32.028l2.76-7.81-2.62-2.282zM26.698 21.578l-5.158.358-2.62 2.28 2.757 7.813 2.807-4.382 4.938 1.647zM25.445 19.9l.32-4.617 3.04-3.49-3.04-3.49-.32-4.616-4.615-.32-3.49-3.04-3.49 3.04-4.617.32-.32 4.618-3.038 3.49 3.038 3.49.32 4.615 4.617.32 3.49 3.037 3.49-3.037 4.615-.32zm-8.166-1.746c-3.547 0-6.423-2.875-6.423-6.42s2.875-6.422 6.422-6.422c3.546 0 6.42 2.876 6.42 6.422s-2.875 6.42-6.42 6.42zM15.155 9.02l.276 1.262L16.8 9.64h.016v5.65h1.63V8.125h-1.393z"/></svg>