<svg xmlns="http://www.w3.org/2000/svg" width="500" height="500" viewBox="0 0 500 500"><path d="M184.977 34.016C143.29-7.67 75.704-7.67 34.017 34.016c-41.687 41.688-41.687 109.275 0 150.962l281.005 281.004c41.687 41.688 109.274 41.688 150.96 0 41.688-41.686 41.688-109.273 0-150.96L184.977 34.016zm-11.948 59.44c6.905-6.907 18.1-6.91 25.01-.002 6.904 6.906 6.904 18.103-.002 25.01-6.906 6.904-18.102 6.904-25.008 0-6.907-6.907-6.907-18.104 0-25.01zM53.666 78.677c-6.907-6.908-6.907-18.104 0-25.01 6.906-6.906 18.103-6.906 25.01 0 6.904 6.905 6.904 18.102 0 25.008-6.907 6.907-18.104 6.907-25.01.002zm19.894 59.68c-6.906-6.907-6.906-18.104 0-25.01 6.907-6.907 18.104-6.907 25.01 0 6.906 6.906 6.906 18.103 0 25.01-6.907 6.905-18.103 6.905-25.01 0zm44.903 59.68c-6.906 6.908-18.104 6.908-25.01 0-6.906-6.905-6.904-18.102.002-25.01 6.906-6.904 18.102-6.905 25.008 0 6.907 6.907 6.907 18.105 0 25.01zm-5.115-99.467c-6.907-6.906-6.907-18.103 0-25.01 6.905-6.905 18.103-6.905 25.01 0 6.906 6.906 6.906 18.104 0 25.01-6.907 6.906-18.105 6.907-25.01 0zm19.894 59.682c-6.908-6.908-6.906-18.103 0-25.01 6.905-6.906 18.102-6.906 25.008 0 6.905 6.907 6.905 18.102 0 25.008-6.906 6.907-18.103 6.907-25.008.002zm78.942 164.093l-34.53-34.528c-30.42-30.42-30.42-79.74 0-110.163 30.42-30.42 79.744-30.42 110.163 0l34.528 34.53c30.422 30.42 30.42 79.742 0 110.16-30.42 30.422-79.74 30.423-110.16 0zm114.788 84.2c-6.907 6.907-18.104 6.907-25.01.003-6.906-6.907-6.906-18.104.002-25.01 6.905-6.907 18.102-6.907 25.008 0 6.905 6.905 6.905 18.102 0 25.008zm14.78-39.786c-6.908-6.907-6.908-18.104 0-25.01 6.905-6.907 18.102-6.907 25.007 0 6.905 6.904 6.905 18.103 0 25.01-6.907 6.904-18.104 6.904-25.01 0zm44.9 59.68c-6.905 6.906-18.103 6.906-25.01 0s-6.905-18.104 0-25.01c6.906-6.906 18.103-6.906 25.01 0 6.908 6.907 6.908 18.104 0 25.01zm-5.114-99.47c-6.905-6.905-6.907-18.1 0-25.008 6.906-6.906 18.103-6.906 25.01 0 6.904 6.905 6.904 18.103 0 25.01-6.908 6.905-18.104 6.904-25.01 0zm19.893 59.683c-6.905-6.906-6.905-18.104 0-25.01s18.105-6.907 25.01 0c6.908 6.905 6.908 18.102 0 25.01-6.906 6.907-18.103 6.907-25.01 0zm44.903 59.68c-6.906 6.905-18.103 6.905-25.008 0-6.907-6.906-6.907-18.103 0-25.008 6.906-6.907 18.103-6.907 25.01-.002 6.904 6.907 6.904 18.104-.002 25.01zM465.983 184.978c41.687-41.687 41.687-109.274 0-150.96-41.686-41.688-109.273-41.688-150.96 0L268.187 80.85l150.96 150.962 46.835-46.834zM34.018 315.022c-41.688 41.687-41.688 109.274 0 150.96 41.688 41.688 109.275 41.688 150.96 0l46.834-46.834-150.96-150.96-46.834 46.834z"/></svg>