<svg xmlns="http://www.w3.org/2000/svg" width="64" height="64" viewBox="0 0 64 64"><path d="M58.63 26.164c-.252-1.886-.287-5.135 1.464-6.226.032-.02.055-.05.083-.074 1.432-.458 2.423-1.1 1.645-1.966l-21.13-6.367L6.478 16.29s-3.918.56-3.568 6.647c.19 3.313 1.23 4.94 2.138 5.74l-2.808.847c-.78.865.212 1.508 1.645 1.966.027.025.05.054.082.074 1.75 1.092 1.717 4.34 1.465 6.227-6.29 1.785-4.032 2.367-4.032 2.367l1.38.334c-.97.878-1.935 2.54-1.754 5.695.35 6.087 3.568 6.507 3.568 6.507l22.39 7.277 33.794-8.187s2.26-.583-4.033-2.37c-.253-1.883-.288-5.13 1.467-6.225.032-.02.055-.05.082-.074 1.432-.458 2.423-1.1 1.644-1.966l-1.47-.443c.98-.59 2.453-2.135 2.683-6.145.16-2.758-.56-4.374-1.392-5.325l2.903-.703s2.26-.582-4.03-2.368zm-28.268-.078l5.683-1.168L55.25 20.97l2.86-.587c-.913 1.673-.875 3.963-.724 5.435.034.333.072.637.11.868l-3.133.78-24.24 6.03.24-7.41zM5.95 32.01l2.86.587 18.445 3.79 1.61.332 4.833.992.238 7.41-24.913-6.2-2.456-.61c.036-.23.074-.535.11-.868.15-1.472.188-3.762-.727-5.435zM4.84 22.64c-.036-1.62.253-2.79.836-3.385.37-.38.81-.46 1.11-.46.158 0 .272.023.28.023l14.742 4.806 7.355 2.398-.24 7.46L8.287 27.7l-1.09-.305c-.04-.01-.093-.02-.135-.02-.085-.007-2.125-.195-2.224-4.733zm22.197 34.094l-21.722-6.09c-.04-.01-.094-.02-.136-.02-.087-.007-2.128-.195-2.227-4.732-.035-1.62.255-2.79.837-3.386.372-.38.81-.46 1.11-.46.16 0 .273.023.28.023 0 0 .002 0 0 0l22.097 7.206-.24 7.46zM55.5 49.07c.035.332.073.636.11.867l-27.372 6.81.24-7.41 5.85-1.202.865.21 3.24-1.054 14.93-3.068 2.863-.588c-.915 1.673-.877 3.963-.725 5.435zM57.01 39c-.05 0-.1.007-.148.02l-2.064.58-19.658 5.51-.24-7.46 6.45-2.103 15.616-5.093c.002 0 .82-.183 1.422.43.582.594.872 1.765.837 3.384-.1 4.537-2.142 4.725-2.216 4.73z"/></svg>