<svg xmlns="http://www.w3.org/2000/svg" width="500" height="500" viewBox="0 0 500 500"><path d="M463.575 281.565c-1.938-6.548-3.563-13.27-5.877-19.69-3.438-9.468-7.287-18.78-11.015-28.11-3.472-8.797-6.398-17.74-8.137-27.033-.396-2.062.29-4.466.922-6.573.902-3.057 2.37-5.95 3.27-8.988.397-1.24.057-2.757-.232-4.086-5.786-26.256-14.285-51.535-26.545-75.55-1.177-2.295-2.298-4.628-3.49-7.096 3.73-2.35 7.415-4.647 11.23-6.998-10.867-18.164-23.055-35.053-39.618-48.714 3.58-1.365 6.73-2.63 10.07-3.87-.31-.353-.45-.633-.774-.814-13.453-9.855-27.955-17.703-43.472-23.887-20.867-8.336-42.458-13.815-64.733-16.41-6.854-.778-13.763-.904-20.67-1.33-.435-.035-20.197-.035-21.03-.017-14.34.39-28.462 2.37-42.565 5-15.84 2.884-31.373 6.908-46.4 12.613-22.71 8.607-43.776 20.09-61.75 36.79-8.01 7.44-15.135 15.604-21.68 24.347C62.16 93.003 55 105.832 49.214 119.458c-6.003 14.204-9.837 28.96-11.59 44.275-.49 4.52-.815 9.077-1.194 13.607-1.282 26.626 2.026 40.984 3.6 49.112 1.43 7.314 3.544 14.51 5.985 21.554 8.336 24.16 20.723 46.112 37.195 65.695 11.627 13.8 21.5 28.807 30.197 44.574 14.104 25.565 24.628 52.526 31.265 81.01 1.03 4.445 1.375 8.932 1.41 13.488.055 10.737.2 21.535.38 32.274.056 4.214.09 8.372.2 12.566h215.615l.146-53.853c.31-6.548.832-13.058 1.97-19.456.926-5.025 4.217-9.365 9.585-11.104 7.597-2.496 13.037-2.644 20.903-1.7 8.084.978 16.04 2.313 24.123 3 2.712.272 6.003.235 8.752-.52 4.016-1.178 7.194-4.216 9.907-7.323 4.285-5.026 5.73-10.813 4.122-17.305-.506-2.08-.648-4.25-.978-6.387-.633-4.482 1.593-8.063 3.854-11.605.888-1.375 1.973-2.645 2.784-4.05 2.73-4.773 2.26-12.405-1.19-16.62-1.812-2.1-3.963-3.868-6.006-5.804-.507-.474-1.12-.903-1.698-1.306 2.46-1.59 4.898-2.944 7.032-4.664 1.72-1.375 3.236-3.073 4.468-4.883 1.607-2.352 1.917-5.01.938-7.793-2.565-7.09-4.25-14.305-5.136-21.79-.31-2.53-.198-5.062-.146-7.54.035-.45.705-1.12 1.213-1.354 2.15-1.05 4.303-2.024 6.562-2.896 13.022-4.966 10.093-10.878 10.093-11.095zM343.758 138.683c2.13 15.835-9.194 30.842-26.228 36.373-5.003 3.99-11.326 6.843-18.283 8.243-5.865 6.436-14.48 11.148-24.5 12.443-9.09 1.268-17.648-.555-24.713-4.377-3.998 13.043-37.042 13.395-53.405 15.597-16.796 2.205-35.963 67.872-43.19 38.15-1.19-5.987-21.106-67.653-49.495-72.348-10.257-1.473 10.71-6.327 6.112-7.442-15.307-3.77-16.927-14.866-18.9-29.44-1.268-9.16 1.76-18.055 7.486-25.286-.035-.238-.14-.467-.176-.705-1.655-12.232 6.482-23.752 19.06-28.93 6.146-9.96 17.313-17.465 30.894-19.808 5.04-3.822 11.274-6.473 18.267-7.45 6.024-.83 11.783-.124 17.015 1.53 1.85-.43 3.558-.95 5.425-1.17 4.104-.573 8.067-.467 11.96-.106 4.332-3.602 9.88-6.2 16.222-7.09 8.93-1.153 17.295 1.322 23.284 6.078 6.27-4.51 13.897-7.732 22.494-8.92 8.174-1.102 15.978-.116 22.95 2.307 17.913-1.735 34.24 5.733 42.38 18.327 10.463 4.685 18.07 13.492 19.567 24.474.563 4.016.088 7.935-1.02 11.722 2.042 3.373 3.52 7.037 4.12 11.07 1.147 8.913-1.937 17.57-7.908 24.42.177.813.475 1.516.58 2.337z"/></svg>