<svg xmlns="http://www.w3.org/2000/svg" width="512" height="512" viewBox="0 0 512 512"><path d="M156.105 143.573H262.77c5.522 0 10-4.478 10-10 0-5.523-4.478-10-10-10H156.106c-5.523 0-10 4.477-10 10s4.477 10 10 10zM156.105 192.906H301.44c5.52 0 10-4.477 10-10 0-5.522-4.48-10-10-10H156.104c-5.523 0-10 4.478-10 10 0 5.524 4.477 10 10 10zM115.53 72.76h226.485v156.773c3.947 1.14 7.336 2.85 10.107 4.403 4.69-2.63 11.135-5.714 19.092-5.714.27 0 .533.023.8.03V72.76c0-16.568-13.43-30-30-30H115.53c-16.57 0-30 13.432-30 30v334.293c0 16.568 13.43 30 30 30h181.665v-30H115.53V72.76zM418.186 303.748c-2.234-1.988-4.768-4.242-5.324-5.954-.607-1.872.1-5.156.78-8.332 1.07-4.98 2.284-10.62-.796-14.853-3.107-4.272-8.883-4.857-13.98-5.374-3.055-.31-6.518-.66-8.066-1.79-1.512-1.098-2.895-4.252-4.115-7.035-2.074-4.724-4.422-10.078-9.51-11.73-.936-.303-1.932-.457-2.96-.457-3.894 0-7.632 2.17-11.245 4.27-2.852 1.656-5.8 3.368-7.846 3.368-2.047 0-4.994-1.71-7.848-3.367-3.613-2.1-7.35-4.27-11.246-4.27-1.027 0-2.02.154-2.96.458-5.085 1.652-7.435 7.007-9.51 11.73-1.22 2.784-2.603 5.94-4.114 7.037-1.55 1.128-5.012 1.48-8.066 1.79-5.096.516-10.873 1.102-13.98 5.372-3.08 4.23-1.867 9.873-.797 14.852.682 3.177 1.39 6.46.78 8.333-.556 1.71-3.09 3.965-5.323 5.953-3.885 3.456-8.287 7.373-8.287 12.808s4.402 9.352 8.287 12.808c2.234 1.988 4.768 4.242 5.324 5.954.607 1.87-.098 5.156-.78 8.332-1.07 4.98-2.284 10.62.796 14.853 3.107 4.27 8.885 4.856 13.98 5.374 3.055.31 6.518.66 8.066 1.788 1.512 1.1 2.895 4.254 4.117 7.037 2.072 4.724 4.422 10.078 9.508 11.73.94.304 1.935.457 2.962.457 3.893 0 7.63-2.17 11.244-4.27 2.852-1.656 5.8-3.37 7.848-3.37 2.045 0 4.994 1.713 7.846 3.37 3.613 2.1 7.352 4.27 11.246 4.27 1.027 0 2.023-.155 2.96-.46 5.085-1.65 7.435-7.005 9.507-11.73 1.223-2.78 2.605-5.936 4.117-7.035 1.55-1.128 5.012-1.48 8.066-1.79 5.098-.516 10.873-1.102 13.98-5.372 3.08-4.23 1.867-9.874.797-14.853-.682-3.176-1.39-6.46-.78-8.332.556-1.712 3.09-3.966 5.323-5.954 3.885-3.456 8.287-7.373 8.287-12.808s-4.403-9.352-8.287-12.808zm-63.063 38.777c-14.344 0-25.97-11.627-25.97-25.97s11.626-25.97 25.97-25.97c14.342 0 25.97 11.627 25.97 25.97s-11.628 25.97-25.97 25.97zM379.525 391.67c-1.697.55-3.484.83-5.31.83-5.946 0-11.005-2.938-15.07-5.3-1.15-.67-2.944-1.71-4.022-2.178-1.08.47-2.87 1.51-4.025 2.18-4.064 2.36-9.123 5.298-15.066 5.298-1.828 0-3.615-.28-5.313-.83-5.02-1.63-8.23-5.05-10.524-8.728v82.188c0 1.63.965 3.106 2.457 3.763 1.492.655 3.232.365 4.434-.738l28.037-25.78 28.035 25.78c.772.712 1.77 1.085 2.782 1.085.557 0 1.12-.114 1.65-.347 1.494-.656 2.457-2.132 2.457-3.763v-82.228c-2.3 3.666-5.548 7.152-10.525 8.767z"/></svg>