<svg xmlns="http://www.w3.org/2000/svg" width="50" height="50" viewBox="0 0 50 50"><path d="M35.15 31.214c-.685.445-1.395.828-2.12 1.154-1.383 4.832-5.846 7.64-5.846 7.64 1.86-2.224 1.358-4.48.27-6.28-2.847.152-5.548-.543-7.55-2.043.07-.047.143-.088.213-.137.98.14 1.993.215 3.03.215 8.515 0 15.417-4.938 15.417-11.03 0-1.83-.635-3.554-1.738-5.072.793.466 1.508 1.03 2.105 1.712 3.52 4.01 1.826 10.207-3.78 13.842zm-25.71.96s5.816.075 10.537-3.233c.852.122 1.73.19 2.63.19 7.388 0 13.376-4.284 13.376-9.568 0-5.285-5.988-9.568-13.375-9.568S9.233 14.276 9.233 19.562c0 3.034 1.98 5.733 5.062 7.487-.413 2.103-1.653 4.27-4.855 5.125z"/></svg>