<svg xmlns="http://www.w3.org/2000/svg" width="32" height="32" viewBox="0 0 32 32"><path d="M23.394 6.05v-.858c0-.722-.585-1.306-1.307-1.306H20.16c.183-.373.287-.776.287-1.208 0-1.474-1.2-2.678-2.673-2.678s-2.672 1.206-2.672 2.68c0 .434.104.834.287 1.207h-2.583c-.722 0-1.306.584-1.306 1.306v.857H8.21c-1.168 0-2.117.948-2.117 2.117v21.715c0 1.17.948 2.118 2.118 2.118h18.472c1.17 0 2.118-.948 2.118-2.118V8.167c0-1.17-.95-2.117-2.118-2.117h-3.288zm-7.212-3.37c0-.88.715-1.6 1.592-1.6.878 0 1.592.72 1.592 1.6 0 .48-.212.916-.546 1.207h-2.09c-.336-.29-.548-.728-.548-1.208zm10.456 26.058c0 .607-.492 1.1-1.1 1.1H9.356c-.607 0-1.1-.492-1.1-1.1V9.31c0-.606.493-1.098 1.1-1.098H11.5c0 .597.484 1.08 1.08 1.08h9.732c.597 0 1.082-.483 1.082-1.08h2.145c.606 0 1.098.49 1.098 1.1v19.426zM16.576 19.572l-1.318-1.32c-.148-.15-.35-.232-.56-.232-.21 0-.41.083-.56.232l-.41.41c-.308.308-.308.81 0 1.118l2.316 2.317c.15.15.358.235.57.23.215-.002.42-.09.566-.247l4.02-4.263c.3-.318.287-.818-.03-1.12l-.42-.395c-.154-.145-.357-.222-.567-.216-.21.006-.41.096-.553.248l-3.054 3.238zM17.447 10.903c-4.356 0-7.9 3.548-7.9 7.91 0 4.36 3.544 7.908 7.9 7.908 4.355 0 7.9-3.548 7.9-7.908s-3.544-7.91-7.9-7.91zm0 13.657c-3.165 0-5.74-2.578-5.74-5.748s2.575-5.748 5.74-5.748c3.164 0 5.74 2.578 5.74 5.748s-2.576 5.748-5.74 5.748z"/></svg>