<svg xmlns="http://www.w3.org/2000/svg" width="48" height="48" viewBox="0 0 48 48"><g fill="#050505"><path d="M10.605 25.723c-5.187 0-9.405 4.22-9.405 9.406s4.22 9.406 9.405 9.406c5.188 0 9.407-4.22 9.407-9.407s-4.22-9.407-9.407-9.407zm0 14.826c-2.987 0-5.42-2.433-5.42-5.42s2.433-5.42 5.42-5.42c2.99 0 5.42 2.43 5.42 5.42s-2.43 5.42-5.42 5.42zM37.52 25.723c-5.19 0-9.408 4.22-9.408 9.406s4.22 9.406 9.407 9.406 9.405-4.22 9.405-9.407-4.22-9.407-9.406-9.407zm0 14.826c-2.99 0-5.42-2.433-5.42-5.42s2.43-5.42 5.42-5.42c2.986 0 5.418 2.43 5.418 5.42s-2.432 5.42-5.42 5.42zM25.977 25.44l-5.055-4.478 5.487-5.25 2.573 3.894c.532.806 1.42 1.305 2.388 1.34l5.058.178c1.634.062 3.035-1.232 3.094-2.882.06-1.65-1.232-3.036-2.883-3.094l-3.52-.124-3.7-5.594c-.49-.74-1.28-1.224-2.16-1.322-.885-.098-1.76.197-2.4.81l-10.423 9.966c-.604.578-.938 1.38-.922 2.217.014.836.385 1.627 1.01 2.182l6.478 5.742v10.243c0 1.65 1.345 2.99 2.996 2.99 1.65 0 2.996-1.34 2.996-2.99v-11.59c0-.855-.38-1.67-1.02-2.236z"/><circle cx="33.563" cy="5.632" r="3.956"/></g></svg>