<svg xmlns="http://www.w3.org/2000/svg" width="23.303" height="22.086" viewBox="0 0 23.303 22.086"><path d="M0 22.086h23.303V7.072H0v15.014zM12.38 9.772c2.408 0 4.123 1.647 4.123 3.935 0 2-1.117 3.252-2.586 3.252-.642 0-1.104-.343-1.17-1.05h-.026c-.436.68-1.034 1.05-1.77 1.05-.87 0-1.524-.668-1.524-1.785 0-1.674 1.238-3.17 3.198-3.17.598 0 1.278.147 1.605.325l-.41 2.533c-.124.802-.025 1.168.355 1.183.585.028 1.32-.72 1.32-2.3 0-1.784-1.145-3.144-3.254-3.144-2.096 0-3.905 1.62-3.905 4.233 0 2.286 1.44 3.563 3.472 3.563.694 0 1.44-.147 1.986-.42l.23.777c-.814.366-1.52.49-2.488.49-2.262 0-4.247-1.62-4.247-4.288 0-2.777 2.03-5.185 5.09-5.185zM10.8 15.014c0 .516.23.844.667.844.517 0 1.05-.64 1.157-1.43l.203-1.293c-.106-.027-.257-.055-.423-.055-.897 0-1.603.885-1.603 1.934zM11.677 0L0 6.375h23.303z"/></svg>