<svg xmlns="http://www.w3.org/2000/svg" width="100" height="100" viewBox="0 0 100 100"><path d="M74.028 1.958l-12.466-.02c-14.004 0-23.053 9.285-23.053 23.656V36.5H25.974c-1.083 0-1.96.88-1.96 1.962v15.803c0 1.083.878 1.96 1.96 1.96h12.533V96.1c0 1.084.877 1.96 1.96 1.96H56.82c1.083 0 1.96-.877 1.96-1.96V56.226h14.654c1.083 0 1.96-.877 1.96-1.96l.006-15.803c0-.52-.207-1.018-.574-1.386-.368-.368-.867-.575-1.387-.575H58.78v-9.245c0-4.444 1.06-6.7 6.848-6.7l8.398-.003c1.082 0 1.96-.878 1.96-1.96V3.918c0-1.08-.877-1.958-1.958-1.96z"/></svg>