<svg xmlns="http://www.w3.org/2000/svg" viewBox="0 0 64 64" enable-background="new 0 0 64 64"><path d="M31.813 20.538c2.457 0 4.45-1.992 4.45-4.448 0-2.44-1.993-4.433-4.45-4.433-2.44 0-4.425 1.992-4.425 4.433 0 2.456 1.985 4.448 4.425 4.448zM58.956 3.86h-.982c-1.448 0-2.622 1.174-2.622 2.622V8.75H8.648V6.48c0-1.448-1.174-2.622-2.623-2.622h-.98c-1.45 0-2.624 1.174-2.624 2.622v6.905c0 1.448 1.175 2.62 2.624 2.62h.982c1.448 0 2.623-1.172 2.623-2.62V11.12h5.246c-.372.816-.243 1.81.41 2.498l11.54 11.554v34.326c0 1.39 1.117 2.5 2.486 2.5 1.394 0 2.502-1.11 2.502-2.5V42.696h2.02l.017 16.803c0 1.39 1.124 2.5 2.503 2.5 1.376 0 2.485-1.11 2.485-2.5l-.015-34.327 11.54-11.554c.653-.69.78-1.683.41-2.5h5.56v2.268c0 1.448 1.173 2.62 2.62 2.62h.983c1.448 0 2.622-1.172 2.622-2.62V6.482c0-1.448-1.174-2.622-2.622-2.622zm-23.83 17.666h-6.48L18.237 11.12h27.23l-10.34 10.406z"/></svg>