<svg xmlns="http://www.w3.org/2000/svg" width="64" height="64" viewBox="0 0 64 64"><g fill="#0E0F0F"><path d="M50.794 1.014c-9.917.874-17.235 5.824-21.5 12.98-2.86 3.584-8.57 14.526-10.648 20.254-3.766 7.123-7.05 15.598-9.62 23.238-1.57 4.672 5.483 7.72 7.063 3.027 1.92-5.716 4.243-11.896 6.867-17.63 2.604 5.827 5.25 11.636 8.09 17.353 2.203 4.438 8.83.546 6.635-3.877-2.925-5.886-5.642-11.865-8.32-17.864.035-.116.078-.23.114-.344.446.127.938.166 1.48.063 4.096-.77 8.192-1.536 12.29-2.305 1.752-.33 2.423-2.245 2.147-3.78-.828-4.596-3.447-7.794-6.707-10.82-.484-1.646-2.098-3.102-3.89-4.55 3.632-5.87 9.56-9.055 17.276-9.735 3.938-.345 2.626-6.354-1.278-6.01zM35.87 27.144c1.013 1.053 1.875 2.162 2.526 3.446l-5.947 1.115c1-1.61 2.15-3.13 3.42-4.562z"/><circle cx="44.35" cy="16.635" r="5.275"/></g></svg>