<svg xmlns="http://www.w3.org/2000/svg" width="64" height="64" viewBox="0 0 64 64"><g fill="#0E0F0F"><path d="M29.246 6.206c-10.943 2.026-18.59 12.132-17.93 23.245.012.206.037.4.064.594-.4 1.993.356 4.35 2.734 5.31 3.796 1.537 8.127 3.883 9.56 7.99 1.535 4.396-1.79 9.083-4.47 12.227-3.54 4.15 2.45 10.202 6.02 6.022 4.83-5.667 8.262-12.04 6.884-19.653-.04-.21-.1-.41-.146-.613.328-.466.567-1.02.64-1.692.883-8.227 3.2-16.207 4-24.446.65-1.4.852-3.022.46-4.466-.953-3.565-4.395-5.15-7.816-4.518zM26.742 33.15c-.858-.75-1.774-1.444-2.732-2.083.078-.473.107-.98.077-1.527-.038-.632-.01-1.267.03-1.896.015-.222.035-.44.057-.658.01-.06.02-.12.037-.202.153-.853.387-1.688.646-2.513.11-.296.17-.46.18-.507.19-.402.4-.795.618-1.184.708-1.273.314-.657 1.366-1.73.547-.558 1.322-1.017 2.236-1.39-.698 4.584-1.703 9.123-2.514 13.69z"/><circle cx="44.234" cy="8.705" r="6.667"/></g></svg>