<svg xmlns="http://www.w3.org/2000/svg" width="64" height="64" viewBox="0 0 64 64"><g fill="#0E0F0F"><path d="M24.142 12.973c3.47-.402 5.963-3.572 5.564-7.082-.396-3.51-3.532-6.028-7-5.627-3.47.402-5.96 3.572-5.564 7.082.395 3.51 3.53 6.03 7 5.628zM60.474 58.047c-4.91-8.43-20.18-35.67-22.716-40.117 4.95-1.597 9.47-.14 13.027 4.9 2.892 4.097 9.656.168 6.73-3.98-6.883-9.75-17.147-12.17-27.422-6-.43.256-2.355 1.332-2.79 1.593-6.39 3.835-12.324 3.11-16.758-3.173-2.895-4.1-9.66-.168-6.73 3.98 5.658 8.013 13.6 11.07 21.956 8.48 2.62 4.552 5.11 9.187 7.5 13.866-3.533 1.825-6.805 4.103-9.846 6.78-1.796 1.584-1.5 3.66-.295 5.06.29.637 9.584 6.564 13.61 9.008 4.318 2.624 8.236-4.194 3.933-6.807l-7.803-4.74c2.505-1.708 8.94-4.524 9.28-4.796 3.863 6.647 7.733 13.283 11.596 19.925 2.542 4.376 9.28.41 6.728-3.978z"/></g></svg>