<svg xmlns="http://www.w3.org/2000/svg" width="126" height="126" viewBox="0 0 126 126"><g fill="#010101"><path d="M52.106 100.945l-2.78-1.025c.22-2.027.147-4.093-.234-6.146l2.684-1.238c1.677-.77 2.412-2.764 1.64-4.44l-1.568-3.4c-.772-1.677-2.763-2.415-4.437-1.642l-2.687 1.24c-1.313-1.628-2.837-3.024-4.52-4.177l1.027-2.775c.638-1.73-.25-3.66-1.98-4.3l-3.515-1.3c-1.677-.616-3.68.306-4.298 1.98L30.412 76.5c-2.025-.216-4.09-.145-6.146.234L23.03 74.05c-.773-1.676-2.766-2.412-4.44-1.64l-3.403 1.565c-1.676.773-2.41 2.767-1.64 4.44l1.237 2.685c-1.624 1.315-3.023 2.84-4.174 4.523l-2.774-1.026c-1.675-.624-3.68.3-4.302 1.98L2.237 90.09c-.31.84-.273 1.75.1 2.562.376.81 1.044 1.43 1.88 1.735l2.78 1.028c-.22 2.025-.148 4.094.234 6.147L4.545 102.8c-1.676.77-2.41 2.762-1.64 4.437l1.57 3.404c.77 1.676 2.762 2.412 4.437 1.64l2.688-1.237c1.313 1.626 2.836 3.022 4.52 4.174l-1.026 2.777c-.312.838-.276 1.745.1 2.56.37.81 1.04 1.43 1.88 1.742l3.514 1.296c.836.31 1.747.273 2.56-.1.812-.374 1.43-1.042 1.737-1.88l1.027-2.78c2.025.22 4.093.148 6.147-.23l1.235 2.683c.772 1.674 2.766 2.41 4.44 1.638l3.402-1.566c1.678-.772 2.413-2.763 1.64-4.44l-1.238-2.684c1.626-1.315 3.024-2.838 4.173-4.52l2.777 1.027c.84.31 1.75.273 2.563-.102.81-.374 1.426-1.042 1.736-1.88l1.297-3.514c.64-1.73-.247-3.66-1.977-4.3zm-18.408 8.743c-1.754.808-3.615 1.216-5.533 1.216-5.152 0-9.872-3.023-12.025-7.698-3.052-6.63-.144-14.507 6.483-17.558 1.753-.81 3.614-1.217 5.53-1.217 5.15 0 9.874 3.022 12.028 7.698 3.053 6.63.144 14.507-6.482 17.56zM85.207 110.526l-1.547-.57c.123-1.13.082-2.28-.13-3.423l1.494-.69c.934-.427 1.343-1.537.913-2.472l-.872-1.892c-.432-.935-1.54-1.346-2.47-.914l-1.498.69c-.73-.906-1.58-1.685-2.515-2.326l.57-1.546c.356-.964-.14-2.037-1.102-2.395l-1.958-.722c-.934-.346-2.048.168-2.394 1.1l-.57 1.55c-1.127-.122-2.28-.082-3.422.13l-.688-1.494c-.432-.933-1.54-1.344-2.474-.913l-1.894.873c-.934.432-1.342 1.54-.913 2.473l.69 1.495c-.906.732-1.685 1.58-2.327 2.518l-1.544-.57c-.93-.347-2.05.165-2.394 1.1l-.724 1.96c-.17.466-.15.973.055 1.425.21.452.583.796 1.05.967l1.546.572c-.124 1.128-.084 2.278.13 3.422l-1.496.69c-.934.43-1.343 1.537-.913 2.47l.875 1.896c.43.932 1.538 1.343 2.47.913l1.496-.687c.732.905 1.582 1.682 2.52 2.323l-.572 1.545c-.174.468-.154.975.055 1.427.208.452.58.797 1.047.97l1.956.723c.467.172.972.152 1.425-.056s.798-.58.97-1.046l.57-1.55c1.13.124 2.28.084 3.423-.128l.69 1.495c.428.93 1.538 1.342 2.47.91l1.895-.87c.933-.433 1.342-1.54.912-2.473l-.688-1.496c.904-.73 1.683-1.578 2.323-2.516l1.547.57c.467.175.974.153 1.427-.055.45-.207.794-.58.966-1.047l.722-1.957c.356-.963-.14-2.038-1.1-2.394zm-10.25 4.87c-.976.448-2.01.676-3.08.676-2.868 0-5.497-1.683-6.696-4.287-1.7-3.69-.08-8.077 3.61-9.775.977-.45 2.013-.677 3.08-.677 2.868 0 5.496 1.682 6.697 4.285 1.698 3.692.08 8.076-3.61 9.778zM120.297 51.622l-4.673-1.725c.37-3.407.248-6.882-.392-10.337l4.513-2.077c2.817-1.294 4.052-4.647 2.754-7.468l-2.635-5.718c-1.297-2.82-4.645-4.06-7.46-2.76l-4.52 2.085c-2.207-2.735-4.77-5.082-7.595-7.02l1.723-4.668c1.072-2.91-.418-6.155-3.328-7.23l-5.91-2.185c-2.818-1.037-6.185.514-7.227 3.33l-1.724 4.672c-3.405-.366-6.88-.245-10.333.39l-2.08-4.51c-1.296-2.818-4.645-4.055-7.463-2.757l-5.72 2.634c-2.818 1.298-4.055 4.65-2.76 7.465l2.084 4.513c-2.73 2.21-5.082 4.773-7.02 7.603l-4.664-1.723c-2.815-1.05-6.188.504-7.23 3.324l-2.18 5.913c-.522 1.41-.46 2.938.165 4.304.635 1.364 1.76 2.403 3.164 2.917l4.673 1.73c-.37 3.403-.25 6.882.392 10.335l-4.515 2.077c-2.82 1.3-4.053 4.645-2.756 7.46l2.634 5.725c1.298 2.814 4.646 4.054 7.463 2.755l4.515-2.08c2.208 2.735 4.77 5.083 7.602 7.018l-1.726 4.67c-.524 1.407-.463 2.935.167 4.302.626 1.364 1.75 2.406 3.16 2.93l5.908 2.178c1.41.52 2.937.46 4.303-.165 1.367-.63 2.404-1.753 2.922-3.163l1.728-4.674c3.404.37 6.88.25 10.336-.39l2.076 4.513c1.298 2.814 4.65 4.055 7.466 2.755l5.72-2.633c2.82-1.3 4.053-4.646 2.755-7.464l-2.08-4.513c2.732-2.213 5.084-4.77 7.016-7.6l4.672 1.728c1.41.52 2.94.46 4.307-.17 1.362-.63 2.398-1.754 2.92-3.16l2.182-5.91c1.072-2.91-.42-6.152-3.33-7.226zM89.35 66.32c-2.95 1.357-6.077 2.045-9.3 2.045-8.663 0-16.597-5.082-20.22-12.945-5.132-11.146-.242-24.388 10.9-29.518 2.946-1.36 6.076-2.045 9.296-2.045 8.662 0 16.6 5.08 20.223 12.94 5.13 11.15.24 24.39-10.9 29.523z"/></g></svg>