<svg xmlns="http://www.w3.org/2000/svg" width="100" height="100" viewBox="0 0 100 100"><path d="M58.29 27.857c3.704 2.323 6.302 6.254 6.776 10.817 1.51.706 3.188 1.112 4.965 1.112 6.493 0 11.753-5.26 11.753-11.75 0-6.492-5.26-11.753-11.752-11.753-6.428 0-11.643 5.168-11.74 11.574zm-7.7 24.062c6.49 0 11.752-5.263 11.752-11.753s-5.262-11.75-11.752-11.75-11.754 5.26-11.754 11.75S44.1 51.92 50.59 51.92zm4.984.8h-9.97c-8.298 0-15.048 6.75-15.048 15.047v12.196l.03.19.84.264c7.92 2.473 14.798 3.3 20.46 3.3 11.06 0 17.47-3.154 17.865-3.355l.786-.398h.084V67.767c0-8.296-6.75-15.047-15.046-15.047zm19.444-12.132h-9.895c-.107 3.96-1.797 7.524-4.47 10.088 7.376 2.193 12.77 9.032 12.77 17.11v3.758c9.77-.36 15.4-3.127 15.772-3.314l.785-.398h.084V55.634c0-8.296-6.75-15.046-15.046-15.046zm-45.05-.8c2.3 0 4.44-.672 6.25-1.815.577-3.757 2.59-7.04 5.468-9.276.012-.22.033-.438.033-.66 0-6.49-5.263-11.752-11.75-11.752-6.493 0-11.753 5.26-11.753 11.752 0 6.49 5.26 11.75 11.752 11.75zm10.555 10.888c-2.66-2.55-4.344-6.097-4.467-10.032-.367-.027-.73-.056-1.104-.056h-9.97c-8.298 0-15.048 6.75-15.048 15.046V67.83l.03.19.84.264c6.353 1.984 12.022 2.897 16.946 3.185v-3.684c.002-8.078 5.396-14.916 12.773-17.11z"/></svg>