<svg xmlns="http://www.w3.org/2000/svg" width="112" height="83.992" viewBox="0 0 112 83.992"><path d="M112 10.407v35.177s-7.257 1.48-8.75 1.676c-1.493.195-6.17 1.758-9.57-1.62-5.23-5.207-23.834-24.392-23.834-24.392s-3.205-3.262-8.357-.438c-4.705 2.577-11.683 6.346-14.632 7.835-1.045.76-2.313 1.21-3.686 1.21-3.557 0-6.44-2.993-6.44-6.685 0-2.893 1.775-5.35 4.255-6.28 6.71-4.21 20.685-12.35 26.52-15.564 3.56-1.96 6.126-2.128 11.012 2.133C84.54 8.717 89.89 13.5 89.89 13.5s2.506 1.2 4.53.906c4.236-.625 17.578-4 17.578-4zM37.986 70.01c.9-2.398.598-5.088-1.13-6.926-1.552-1.656-3.81-2.092-5.973-1.578.603-2.217.27-4.578-1.292-6.248-1.558-1.652-3.81-2.086-5.972-1.572.597-2.217.266-4.578-1.293-6.25-2.445-2.604-6.674-2.49-9.45.26-2.763 2.752-4.536 7.73-2.067 10.652 2.465 2.92 5.287 1.146 7.448.635-.597 2.217-2.397 4.283-.187 7.187 2.206 2.912 5.286 1.148 7.446.632-.602 2.215-2.324 4.487-.19 7.186 2.146 2.697 5.665 1.26 7.983.514-.897 2.395-2.814 4.965-.35 7.868 2.458 2.9 8.147 1.55 10.93-1.2 2.775-2.748 3.038-7.102.602-9.706-1.68-1.79-4.19-2.206-6.506-1.454zm50.618-18.393c-19.98-20.724-10.57-10.966-21.36-22.18 0 0-3.253-3.36-7.532-1.41-3.005 1.368-6.874 3.23-9.79 4.65-3.207 1.734-6.002 2.267-6.586 2.267-6.183 0-11.2-5.2-11.2-11.61 0-4.158 2.13-7.78 5.3-9.833 4.462-3.2 14.738-8.875 14.738-8.875S49.048.51 42.187.51c-6.854 0-21.172 9.738-21.172 9.738s-4.064 2.702-9.855.27L0 6.49V46.73s3.184.963 6.048 2.17c.653-1.908 1.685-3.682 3.142-5.137 4.75-4.695 12.62-4.746 16.944-.13 1.298 1.395 2.208 3.083 2.675 4.923 1.745.56 3.31 1.543 4.585 2.9 1.303 1.387 2.21 3.076 2.68 4.92 1.746.56 3.31 1.544 4.587 2.907 1.433 1.524 2.385 3.383 2.837 5.396 1.813.55 3.466 1.56 4.79 2.98 2.59 2.76 3.52 6.517 2.956 10.14v.006c.005.006.013.01.02.018.097.113 1.617 1.887 2.58 2.885 1.92 1.992 5.04 1.987 6.958 0 1.913-1.987 1.92-5.228 0-7.22-.062-.064-.137-.11-.2-.17 0-.016.01-.03.01-.045-6.464-6.706-6.8-7.19-6.16-7.854.64-.662 1.586.8 8.82 8.31.032.032.077.06.132.083.145.21.29.423.47.61 1.914 1.992 5.04 1.988 6.958 0 1.914-1.987 1.918-5.227 0-7.22-.102-.105-.216-.186-.323-.28-.093-.114-.187-.23-.3-.346-6.6-6.84-7.35-8.144-6.847-8.666.574-.596 3.648 2.904 10.215 9.713.014 0 .027-.004.043-.004 1.925 1.817 4.915 1.772 6.776-.156 1.79-1.858 1.887-4.803.322-6.807-.03-.134-.08-.25-.165-.338-8.31-8.63-7.956-8.76-7.452-9.282s.542-.558 8.63 7.832c.03.034.05.076.084.11 1.914 1.992 5.04 1.988 6.96 0 1.91-1.987 1.917-5.228 0-7.22-.057-.053-.117-.09-.17-.143z"/></svg>