<svg xmlns="http://www.w3.org/2000/svg" width="512" height="512" viewBox="0 0 512 512"><path d="M377.424 268.714l-12.277-9.41-18.024-67.002-18.024 67-12.278 9.412H271.25l-27.77 103.228-24.555-.002-48.29-179.623-18.02 66.986-12.28 9.41H54.51C108.18 384.144 256 458.994 256 458.994s147.82-74.852 201.49-190.28h-80.066zM130.59 243.286l27.77-103.228 24.555.002 48.29 179.623 18.02-66.985 12.28-9.41h45.57l27.77-103.23H359.4l27.77 103.23h80.32c5.845-18.178 9.183-37.21 9.183-56.99 0-73.615-57.008-133.29-127.328-133.29-36.88 0-70.09 16.42-93.344 42.648-23.25-26.23-56.464-42.648-93.343-42.648-70.32 0-127.328 59.675-127.328 133.29 0 19.78 3.337 38.813 9.183 56.99h86.077z"/></svg>