<svg xmlns="http://www.w3.org/2000/svg" width="100" height="100" viewBox="0 0 100 100"><path fill-rule="evenodd" clip-rule="evenodd" d="M13.804 1.303h72.393c6.875 0 12.5 5.09 12.5 12.5v72.394c0 7.41-5.625 12.5-12.5 12.5H13.804c-6.877 0-12.5-5.09-12.5-12.5V13.803c0-7.41 5.623-12.5 12.5-12.5zm58.447 10.82c-2.41 0-4.383 1.973-4.383 4.386v10.494c0 2.412 1.972 4.385 4.384 4.385h11.01c2.41 0 4.383-1.974 4.383-4.386V16.51c0-2.414-1.973-4.386-4.384-4.386H72.25zM87.69 42.49h-8.573c.81 2.648 1.25 5.453 1.25 8.356 0 16.2-13.555 29.332-30.274 29.332-16.718 0-30.272-13.132-30.272-29.332 0-2.904.44-5.708 1.25-8.356h-8.944v41.14c0 2.13 1.742 3.873 3.872 3.873H83.82c2.13 0 3.872-1.742 3.872-3.872V42.49h-.002zM50.092 30.836c-10.802 0-19.56 8.485-19.56 18.953 0 10.467 8.758 18.952 19.56 18.952 10.803 0 19.562-8.485 19.562-18.953 0-10.47-8.758-18.954-19.562-18.954z"/></svg>