<svg xmlns="http://www.w3.org/2000/svg" viewBox="0 0 800 800" enable-background="new 0 0 800 800"><path d="M674.924 441.202l123.18 253.047c5.01 10.29-.256 18.71-11.702 18.71H13.598c-11.446 0-16.712-8.42-11.702-18.71L125.076 441.2c1.96-4.025 7.227-7.32 11.703-7.32H242.4c3.256 0 7.652 2.04 9.782 4.5 7.166 8.282 14.466 16.373 21.744 24.38 6.912 7.603 13.86 15.303 20.755 23.184H169.335c-4.477 0-9.743 3.293-11.702 7.32L76.03 660.9h647.935L642.37 493.265c-1.96-4.026-7.227-7.32-11.704-7.32H505.034c6.893-7.88 13.844-15.58 20.756-23.182 7.3-8.03 14.64-16.106 21.824-24.39 2.128-2.455 6.516-4.49 9.765-4.49H663.22c4.476 0 9.742 3.294 11.702 7.32zM581.1 268.272c0 138.27-115.11 164.2-169.245 297.08-4.4 10.796-19.6 10.74-24-.054-48.835-119.806-147.24-152.66-166.067-259.388-18.537-105.07 54.21-207.994 160.43-218.035 108.026-10.21 198.88 74.483 198.88 180.397zm-85.526 0c0-52.857-42.85-95.707-95.707-95.707s-95.707 42.85-95.707 95.707c0 52.858 42.85 95.707 95.707 95.707s95.707-42.85 95.707-95.708z"/></svg>