<svg xmlns="http://www.w3.org/2000/svg" width="15" height="15" viewBox="0 0 15 15"><path d="M10.363.982c-.473-.388-.802-.296-1.277.55-.313.56-.812.627-1.118.61l.002-.112c.354-.176.604-.534.604-.955C8.574.48 8.094 0 7.5 0S6.424.48 6.424 1.075c0 .42.25.78.605.954v.112c-.305.017-.805-.05-1.118-.61C5.44.686 5.11.594 4.637.982c-.476.39-2.35 2.63-4.637 2.424 0 0 .453 1.03 1.688.8 0 0 .66.686 1.73.207 0 0 .558.502 1.443.045 0 0 .66.503 1.36.068 0 0 .397.287.838.213l.028 2.586c-.05-.01-.09-.02-.143-.03 0-.002-.765-.166-1.575-.393-.78-.204-1.635-.535-1.76-.707.01-.01.027-.02.05-.03.07-.037.188-.074.328-.103.286-.058.674-.088 1.064-.104.774-.03.914.005.928.007 0-.024.448.053.57-.403-.004-.003.01-.022.002-.032-.026-.314-.267-.33-.464-.366-.32-.042-.153-.025-.585-.02-.708.053-2.893-.124-3.168 1.026 0 .032-.002.053-.006.08C2.418 7.255 4.49 7.69 5.993 7.99c-.51.35-.782.803-.89 1.39-.053.626.444 1.222 1.6 1.888-.878.62-1.454 1.204-1.407 1.908.082.574.59 1.342 1.585 1.826h.01s-.697-1.064-.744-1.646c-.046-.34.147-.842.995-1.446l.025 2.127h.004c.005.18.145.325.32.325s.315-.145.32-.325h.004l.028-2.07c.78.578.958 1.06.913 1.39-.046.58-.742 1.645-.742 1.645H8.022c.995-.484 1.503-1.25 1.584-1.825.047-.704-.53-1.288-1.405-1.908 1.154-.666 1.652-1.262 1.6-1.888-.107-.588-.38-1.042-.89-1.39 1.502-.3 3.574-.735 3.666-1.736-.004-.028-.006-.05-.006-.08-.274-1.15-2.46-.974-3.17-1.027-.43-.005-.264-.022-.584.02-.198.036-.44.05-.464.365-.008.01.006.03.002.033.123.456.57.378.57.403.014-.002.153-.036.93-.008.388.016.775.045 1.06.104.143.03.26.066.33.103.02.01.04.02.05.03-.125.172-.98.503-1.76.708-.81.225-1.576.39-1.578.39-.02.004-.035.008-.055.01l.034-2.567c.443.078.843-.212.843-.212.7.435 1.36-.068 1.36-.068.886.457 1.44-.045 1.44-.045 1.072.48 1.732-.206 1.732-.206 1.236.228 1.69-.8 1.69-.8-2.287.205-4.162-2.036-4.637-2.425zM6.097 9.577c.016-.226-.062-.764 1.005-1.156l.024 2.138c-.206-.13-.42-.264-.636-.402-.286-.177-.42-.417-.393-.58zm2.314.58c-.187.12-.37.234-.55.348l.027-2.05c.974.39.9.903.917 1.123.027.16-.107.4-.393.578z" fill="#010002"/></svg>