<svg xmlns="http://www.w3.org/2000/svg" width="64" height="64" viewBox="0 0 64 64"><path d="M31.54 39.707h2.94v-3.693h3.77v-2.942h-3.77V29.38h-2.94v3.692h-3.62v2.942h3.62zM12.46 51.418H51.54c2.21 0 4-1.79 4-4v-25.75c0-2.21-1.79-4-4-4h-8.69c.093-.423.148-.862.148-1.314v-1.5c0-3.31-2.69-6-6-6H27c-3.31 0-6 2.69-6 6v1.5c0 .452.055.89.15 1.314h-8.69c-2.21 0-4 1.79-4 4v25.75c0 2.21 1.79 4 4 4zM25 14.854c0-1.103.898-2 2-2h10c1.102 0 2 .897 2 2v1.5c0 .505-.194.962-.505 1.314h-12.99c-.31-.352-.505-.81-.505-1.314v-1.5zm3.267 9.692c1.922 0 3.64.848 4.818 2.185 1.178-1.336 2.896-2.184 4.818-2.184 3.55 0 6.425 2.876 6.425 6.425 0 1.964-.884 3.718-2.27 4.897h.003l-8.84 8.673-9.11-8.673h.002c-1.387-1.18-2.27-2.934-2.27-4.896 0-3.548 2.876-6.424 6.425-6.424z"/></svg>