<svg xmlns="http://www.w3.org/2000/svg" width="64" height="64" viewBox="0 0 64 64"><path d="M49.563 37.833l-.004.005-8.68-4.364c.388-1.73.072-3.584-.956-5.105l1.594-1.278c1.826 1.13 4.248.914 5.833-.67 1.85-1.85 1.85-4.848 0-6.697-1.848-1.85-4.846-1.85-6.696 0-1.624 1.624-1.82 4.13-.592 5.972l-1.5 1.2c-1.03-.82-2.25-1.286-3.495-1.397l-.857-7.36c.678-.315 1.316-.745 1.875-1.305 2.562-2.562 2.562-6.718 0-9.28-2.562-2.56-6.716-2.56-9.28.002-2.56 2.562-2.56 6.716 0 9.278 1.1 1.1 2.495 1.725 3.93 1.88l1.52 7.153c-.878.317-1.705.82-2.41 1.525-.33.33-.617.69-.863 1.066l-4.81-2.415c.04-.694-.196-1.4-.727-1.933-.988-.987-2.59-.987-3.577 0-.988.988-.988 2.59 0 3.577.934.933 2.41.974 3.405.14l4.89 2.457c-.344 1.258-.307 2.597.11 3.838l-6.56 4.588c-2.55-1.725-6.046-1.46-8.305.8-2.562 2.56-2.562 6.716 0 9.277 2.562 2.562 6.716 2.562 9.28 0 1.78-1.782 2.32-4.333 1.624-6.584l5.536-5.535c1 1.002 2.246 1.606 3.542 1.825l.26 3.176c-.52.21-1.01.526-1.43.95-1.68 1.678-1.68 4.4-.002 6.08 1.68 1.678 4.402 1.678 6.08 0 1.68-1.68 1.68-4.402 0-6.08-.743-.744-1.69-1.14-2.663-1.225L35.4 38.52c1.363-.19 2.678-.8 3.727-1.85.113-.112.213-.23.316-.35l8.245 5.435c-.208 1.91.417 3.892 1.88 5.354 2.56 2.56 6.715 2.56 9.277 0 2.562-2.563 2.562-6.718 0-9.28-2.564-2.56-6.72-2.56-9.282.003z"/></svg>