<svg xmlns="http://www.w3.org/2000/svg" width="21.286" height="27.856" viewBox="0 0 21.286 27.856"><path d="M20.55 17.538c-.667-.346-1.49-.085-1.834.58-.05.095-.082.192-.108.29l-1.26-.054c-.06-.302-.175-.596-.374-.86-.592-.786-1.634-1.03-2.498-.65l-2.91-4.748c1-.813 1.19-2.273.407-3.312-.566-.755-1.492-1.07-2.36-.914l-1.8-4.903c.052-.03.106-.06.157-.096.704-.528.845-1.528.313-2.233C7.756-.068 6.755-.21 6.05.32c-.702.53-.843 1.53-.315 2.236.374.495.98.704 1.55.604L9.07 8.033c-.164.072-.324.16-.474.272-.432.326-.715.77-.856 1.252l-4.565-1.29c.055-.555-.177-1.12-.666-1.462C1.784 6.3.79 6.475.287 7.198c-.505.72-.33 1.717.393 2.22.724.506 1.718.33 2.224-.393.05-.068.084-.143.12-.217l4.625 1.31c-.027.543.117 1.097.47 1.565.12.16.264.296.412.417l-.485.91c-.396-.115-.84-.052-1.194.216-.6.452-.72 1.305-.27 1.906.45.6 1.305.72 1.905.27.602-.452.722-1.306.27-1.907-.062-.082-.136-.155-.212-.22l.466-.875c.648.308 1.415.327 2.08.004l2.905 4.738c-.727.593-.95 1.58-.597 2.413l-3.603 2.14c-.438-.46-1.158-.534-1.68-.142-.562.422-.675 1.22-.253 1.78.42.562 1.22.675 1.78.25.446-.333.604-.9.44-1.403l3.602-2.14c.098.123.21.23.33.327l-2.9 4.872c-.406-.14-.87-.08-1.238.195-.595.448-.714 1.29-.266 1.884.445.593 1.29.712 1.88.265.594-.446.716-1.29.27-1.882-.05-.064-.104-.123-.163-.176l2.9-4.874c.66.28 1.446.217 2.062-.245.494-.37.766-.92.813-1.488l1.21.05c.07.408.318.78.713.984.667.345 1.488.085 1.833-.584.35-.666.087-1.488-.58-1.832z" fill="#2D2D2D"/></svg>