<svg xmlns="http://www.w3.org/2000/svg" width="64" height="64" viewBox="0 0 64 64"><path d="M37.814 32.72c-1.433 1.68-2.723 2.91-2.71 2.9.01-.01-1.12 1.366-2.692 2.918-1.264 1.247-2.67 2.478-4.226 3.647-1.766 1.327-4.527 1.5-6.026.584-1.5-.915-4.384-2.77-6.542-2.296-1.813.397-4.22 1.727-7.116 5.145-6.828 8.06-.71 10.578 3.528 13.83 4.243 3.248 18.24-4.8 31.06-17.912 12.82-13.11 17.647-26.675 14.098-30.668-3.55-3.993-6.51-9.91-14.052-2.515-3.198 3.136-4.35 5.634-4.613 7.47-.315 2.188 1.743 4.93 2.764 6.36 1.02 1.43 1.05 4.195-.145 6.053-1.052 1.64-2.176 3.13-3.328 4.48z"/></svg>