<svg xmlns="http://www.w3.org/2000/svg" width="64" height="64" viewBox="0 0 64 64"><path d="M52.533 10.752h-39.5c-1.657 0-3 1.343-3 3v36.61c0 1.657 1.343 3 3 3h39.5c1.656 0 3-1.343 3-3V13.75c0-1.657-1.344-3-3-3zm-4.864 24.81c0 .554-.447 1-1 1h-8.38c-.554 0-1 .447-1 1v8.38c0 .553-.447 1-1 1h-7.014c-.553 0-1-.447-1-1v-8.38c0-.553-.447-1-1-1h-8.38c-.552 0-1-.446-1-1V28.55c0-.553.448-1 1-1h8.38c.553 0 1-.447 1-1v-8.378c0-.553.447-1 1-1h7.014c.553 0 1 .447 1 1v8.378c0 .553.446 1 1 1h8.38c.553 0 1 .447 1 1v7.012z"/></svg>