<svg xmlns="http://www.w3.org/2000/svg" width="32" height="32" viewBox="0 0 32 32"><path d="M11.667 24.084c-.557 0-1.04-.248-1.152-.794l-1.56-7.473-1.03 1.775c-.21.358-.596.613-1.01.613H1.228c-.65 0-1.177-.527-1.177-1.175 0-.65.527-1.177 1.176-1.177H6.24l2.235-3.777c.247-.417.72-.644 1.205-.562.48.08.86.446.958.92l.945 4.568L13.74 5.046c.1-.56.588-.95 1.158-.95h.005c.57 0 1.058.397 1.154.96l2.3 13.42.74-1.875c.176-.45.61-.748 1.093-.748h10.434c.65 0 1.175.527 1.175 1.177 0 .647-.527 1.174-1.176 1.174H20.99L19 23.234c-.194.49-.683.787-1.216.737-.523-.054-.948-.45-1.037-.97L14.87 12.034 12.824 23.26c-.1.554-.58.824-1.142.824h-.015z"/></svg>