<svg xmlns="http://www.w3.org/2000/svg" width="512" height="512" viewBox="0 0 512 512"><circle cx="256" cy="256" r="50.998"/><path d="M474.19 226h-39.666C421.824 150.172 361.828 90.177 286 77.476V37.81c0-2.76-2.24-5-5-5h-50c-2.76 0-5 2.24-5 5v39.666C150.172 90.176 90.177 150.172 77.476 226H37.81c-2.76 0-5 2.24-5 5v50c0 2.76 2.24 5 5 5h39.666c12.7 75.828 72.696 135.823 148.524 148.524v39.666c0 2.76 2.24 5 5 5h50c2.76 0 5-2.24 5-5v-39.666c75.828-12.7 135.823-72.696 148.524-148.524h39.666c2.76 0 5-2.24 5-5v-50c0-2.76-2.238-5-5-5zM256 387.024c-72.247 0-131.024-58.777-131.024-131.024S183.753 124.976 256 124.976 387.024 183.753 387.024 256 328.247 387.024 256 387.024z"/></svg>