<svg xmlns="http://www.w3.org/2000/svg" width="32" height="32" viewBox="0 0 32 32"><g fill="#161616"><path d="M20.564 28.096H2.42V3.903h18.144v4.123l2.42-2.696V3.947c0-1.36-1.104-2.463-2.464-2.463H2.463C1.103 1.484 0 2.586 0 3.947v24.106c0 1.36 1.103 2.463 2.463 2.463H20.52c1.36 0 2.464-1.103 2.464-2.463v-7.938l-2.42 2.697v5.284zM18.51 8.34c0-.67-.54-1.21-1.207-1.21H5.667c-.667 0-1.21.54-1.21 1.21 0 .666.543 1.208 1.21 1.208h11.635c.67 0 1.21-.542 1.21-1.21zM16.845 12.198H5.667c-.668 0-1.21.542-1.21 1.21 0 .667.543 1.21 1.21 1.21h9.008l2.17-2.42zM12.324 17.21H5.667c-.668 0-1.21.54-1.21 1.21 0 .666.543 1.208 1.21 1.208h5.287l1.37-2.42zM4.458 23.488c0 .668.542 1.21 1.21 1.21h3.87c.016-.174.04-.27.08-.4l.58-2.02H5.67c-.668 0-1.21.542-1.21 1.21zM22.615 8.455l-8.447 9.416-.653.73 4.65 4.17.653-.727 8.447-9.416.763-.85-4.65-4.17-.763.848zm-.402 4.253l-5.54 6.175c-.068.078-.166.124-.27.13-.104.005-.206-.03-.283-.1l-.274-.246c-.16-.145-.174-.392-.03-.553l5.54-6.175c.07-.08.166-.126.27-.13.103-.006.205.03.282.1l.274.246c.163.143.176.39.03.552zm1.61-2.934l.274.246c.16.144.174.392.03.553l-.07.08-.396.44-.015.018c-.07.08-.167.125-.27.13-.105.006-.206-.03-.283-.1l-.275-.246c-.078-.07-.124-.167-.13-.27-.005-.104.03-.206.1-.283l.482-.536c.144-.16.392-.175.553-.03zM24.177 6.715l-.35.39 4.65 4.17.35-.39.79-.882-4.648-4.17zM31.936 6.826c-.02-.358-.18-.694-.447-.934l-2.637-2.364c-.267-.24-.62-.363-.976-.344-.358.02-.695.18-.934.448L25.39 5.364l4.65 4.17L31.59 7.8c.24-.264.363-.615.344-.974zm-1.992.97L27.126 5.27l.814-.906 2.815 2.526-.81.907zM11.557 25.46c.192.172.466.22.705.122l5.345-2.19-4.648-4.17-1.6 5.55c-.072.25.005.516.197.688zm1.828-4.755l2.7 2.424-2.1.86-1.23-1.103.63-2.182z"/></g></svg>